<?xml version="1.0" encoding="utf-8"?>
<!-- Generator: Adobe Illustrator 22.0.1, SVG Export Plug-In . SVG Version: 6.00 Build 0)  -->
<svg version="1.1" id="Layer_1" xmlns="http://www.w3.org/2000/svg" xmlns:xlink="http://www.w3.org/1999/xlink" x="0px" y="0px"
	 viewBox="0 0 52 52" style="enable-background:new 0 0 52 52;" xml:space="preserve">
<style type="text/css">
	.st0{fill:#FC4763;}
	.st1{fill:#FFFFFF;}
</style>
<g>
	<circle class="st0" cx="26" cy="26" r="25"/>
	<g>
		<polygon class="st1" points="32.5,14 26,18.8 26,9.2 32.5,14 		"/>
		<polygon class="st1" points="30.5,9.2 30.5,11.5 33.9,14 30.5,16.5 30.5,18.8 37,14 		"/>
		<path class="st1" d="M38,27.6c0,6.6-5.4,12-12,12s-12-5.4-12-12c0-6.6,5.4-12,12-12v-3.2c-8.4,0-15.2,6.8-15.2,15.2
			c0,8.4,6.8,15.2,15.2,15.2S41.2,36,41.2,27.6H38z"/>
		<g>
			<path class="st1" d="M21.3,24.2h-1.5v-1.7h3.5v10.4h-2V24.2z"/>
			<path class="st1" d="M31.6,24.2h-3.5l-0.4,1.6c0.2,0,0.4-0.1,0.7-0.1c1.1,0,2.1,0.4,2.7,1c0.8,0.8,0.9,1.9,0.9,2.5
				c0,1.1-0.3,2-1.1,2.7c-0.8,0.8-1.7,1.1-2.9,1.1c-0.6,0-1.5,0-2.2-0.4c-0.4-0.2-0.9-0.5-1.3-0.9l0.7-1.7c0.3,0.4,0.6,0.7,1.1,0.9
				c0.5,0.3,1,0.4,1.5,0.4c0.9,0,1.3-0.4,1.6-0.6c0.3-0.3,0.5-0.8,0.5-1.5c0-0.6-0.2-1-0.6-1.4c-0.5-0.5-1.1-0.5-1.6-0.5
				c-0.7,0-1.5,0.2-2.2,0.7l1.2-5.5h4.8V24.2z"/>
		</g>
	</g>
</g>
</svg>
