<?xml version="1.0" encoding="utf-8"?>
<!-- Generator: Adobe Illustrator 22.0.1, SVG Export Plug-In . SVG Version: 6.00 Build 0)  -->
<svg version="1.1" id="Isolation_Mode" xmlns="http://www.w3.org/2000/svg" xmlns:xlink="http://www.w3.org/1999/xlink" x="0px"
	 y="0px" viewBox="0 0 30 26" style="enable-background:new 0 0 30 26;" xml:space="preserve">
<style type="text/css">
	.st0{fill:#FC4763;}
</style>
<path class="st0" d="M29.1,19.4l-2.6-2.6l0.6-3.6c0.1-0.3-0.3-0.6-0.6-0.4l-2.6,1.4v-13c0-0.4-0.4-0.7-0.7-0.6L9.8,2.9
	C9.5,2.9,9.3,3.2,9.3,3.5v14c-1.4-1-3.6-1-5.6,0.1c-2.5,1.4-3.6,4.2-2.5,6.1c1.1,1.9,4,2.3,6.5,0.9c1.9-1.1,3-2.9,2.9-4.6h0V6.7
	l11.8-2.1v9.4L20,12.8c-0.3-0.2-0.7,0.1-0.6,0.4l0.6,3.6l-2.6,2.6c-0.3,0.2-0.1,0.7,0.2,0.7l3.6,0.5l1.6,3.3c0.2,0.3,0.6,0.3,0.8,0
	l1.6-3.3l3.6-0.5C29.2,20,29.3,19.6,29.1,19.4z"/>
</svg>
