<?xml version="1.0" encoding="utf-8"?>
<!-- Generator: Adobe Illustrator 22.0.1, SVG Export Plug-In . SVG Version: 6.00 Build 0)  -->
<svg version="1.1" id="Isolation_Mode" xmlns="http://www.w3.org/2000/svg" xmlns:xlink="http://www.w3.org/1999/xlink" x="0px"
	 y="0px" viewBox="0 0 74 74" style="enable-background:new 0 0 74 74;" xml:space="preserve">
<style type="text/css">
	.st0{fill:#FC4763;}
	.st1{fill:#FFFFFF;}
</style>
<g>
	<g>
		<g>
			<g>
				<circle class="st0" cx="37" cy="37" r="36"/>
			</g>
		</g>
	</g>
	<g id="Symbols_4_">
		<g id="icons-_x2F_-play-PAUSE_4_">
			<path id="Rectangle_4_" class="st1" d="M27.9,24.4L27.9,24.4c1.9,0,3.5,1.6,3.5,3.5v18.2c0,1.9-1.6,3.5-3.5,3.5l0,0
				c-1.9,0-3.5-1.6-3.5-3.5V27.9C24.4,26,26,24.4,27.9,24.4z"/>
			<path id="Rectangle-Copy_4_" class="st1" d="M46.1,24.4L46.1,24.4c1.9,0,3.5,1.6,3.5,3.5v18.2c0,1.9-1.6,3.5-3.5,3.5l0,0
				c-1.9,0-3.5-1.6-3.5-3.5V27.9C42.6,26,44.2,24.4,46.1,24.4z"/>
		</g>
	</g>
</g>
</svg>
