<?xml version="1.0" encoding="utf-8"?>
<!-- Generator: Adobe Illustrator 22.0.1, SVG Export Plug-In . SVG Version: 6.00 Build 0)  -->
<svg version="1.1" id="Layer_1" xmlns="http://www.w3.org/2000/svg" xmlns:xlink="http://www.w3.org/1999/xlink" x="0px" y="0px"
	 viewBox="0 0 27 27" style="enable-background:new 0 0 27 27;" xml:space="preserve">
<style type="text/css">
	.st0{fill:#FC4763;}
</style>
<g>
	<g>
		<g>
			<path class="st0" d="M25.3,9.4c-0.1-0.3-0.4-0.5-0.7-0.4c-0.3,0.1-0.5,0.4-0.4,0.7c0.4,1.2,0.6,2.5,0.6,3.8s-0.2,2.5-0.6,3.8
				c-0.1,0.3,0.1,0.6,0.4,0.7c0.1,0,0.1,0,0.2,0c0.2,0,0.5-0.2,0.5-0.4c0.4-1.3,0.7-2.7,0.7-4.1S25.8,10.7,25.3,9.4z"/>
			<path class="st0" d="M22.4,9.7c-0.3,0.1-0.5,0.4-0.4,0.7c0.3,1,0.5,2,0.5,3.1s-0.2,2.1-0.5,3.1c-0.1,0.3,0.1,0.6,0.4,0.7
				c0.1,0,0.1,0,0.2,0c0.2,0,0.5-0.2,0.5-0.4c0.4-1.1,0.6-2.3,0.6-3.4s-0.2-2.3-0.6-3.4C23,9.8,22.7,9.6,22.4,9.7z"/>
			<path class="st0" d="M18.1,1c-0.5,0-1,0.2-1.4,0.5L9.3,7.8h-6C2,7.8,1,8.8,1,10.1v6.8c0,1.3,1,2.3,2.3,2.3h6l7.3,6.3
				c0.4,0.3,0.9,0.5,1.4,0.5c1.2,0,2.2-1,2.2-2.2V3.2C20.3,2,19.3,1,18.1,1z"/>
		</g>
	</g>
</g>
</svg>
