<?xml version="1.0" encoding="utf-8"?>
<!-- Generator: Adobe Illustrator 22.0.1, SVG Export Plug-In . SVG Version: 6.00 Build 0)  -->
<svg version="1.1" id="Isolation_Mode" xmlns="http://www.w3.org/2000/svg" xmlns:xlink="http://www.w3.org/1999/xlink" x="0px"
	 y="0px" viewBox="0 0 52 52" style="enable-background:new 0 0 52 52;" xml:space="preserve">
<style type="text/css">
	.st0{fill:#FC4763;}
	.st1{fill:#FFFFFF;}
</style>
<g>
	<circle class="st0" cx="26" cy="26" r="25"/>
	<g>
		<g>
			<path class="st1" d="M33.8,19c-0.4-0.4-1-0.4-1.4,0l-5.2,4.9c-0.3-0.2-0.7-0.3-1.1-0.3c-1.3,0-2.4,1-2.4,2.3
				c0,1.3,1.1,2.3,2.4,2.3c1.3,0,2.4-1,2.4-2.3c0-0.2,0-0.3-0.1-0.5l5.4-5.1c0.2-0.2,0.3-0.4,0.3-0.7S34,19.2,33.8,19L33.8,19z"/>
			<path class="st1" d="M37.1,14.9c-3-2.9-6.9-4.5-11.1-4.5c-4.2,0-8.1,1.6-11.1,4.5c-3,2.9-4.6,6.8-4.6,10.9c0,3,0.9,5.9,2.6,8.5
				l0.1,0.1c0.2,0.2,0.5,0.4,1,0.4c0.3,0,0.5-0.1,0.6-0.2c0.3-0.1,0.5-0.4,0.6-0.7c0.1-0.4,0-0.7-0.2-1c-0.2-0.3-0.4-0.7-0.6-1
				l0.5-0.2c0.5-0.3,0.9-0.9,0.6-1.6c-0.1-0.3-0.4-0.6-0.7-0.7c-0.3-0.1-0.7-0.1-0.9,0l-0.5,0.2c-0.3-0.8-0.4-1.7-0.5-2.5h0.5
				c0.7,0,1.3-0.6,1.3-1.2c0-0.7-0.6-1.3-1.3-1.3h-0.5c0.1-0.9,0.3-1.7,0.5-2.5l0.4,0.2c0.2,0.1,0.5,0.1,0.5,0.1
				c0.5,0,0.9-0.3,1.2-0.7c0.1-0.3,0.2-0.6,0.1-0.9c-0.1-0.3-0.4-0.6-0.7-0.8l-0.5-0.2c0.4-0.7,0.9-1.4,1.4-2.1l0.4,0.4
				c0.5,0.5,1.2,0.5,1.8,0c0.3-0.2,0.4-0.6,0.4-0.9c0-0.3-0.1-0.6-0.4-0.9l-0.4-0.4c0.7-0.6,1.4-1,2.2-1.4L20,15l0,0.1
				c0.3,0.4,0.7,0.6,1.2,0.6h0l0.3,0l0.1,0c0.3-0.1,0.6-0.4,0.7-0.7c0.1-0.3,0.1-0.7,0-0.9l-0.2-0.5c0.8-0.3,1.7-0.4,2.6-0.5v0.5
				c0,0.7,0.6,1.2,1.3,1.2c0.7,0,1.3-0.6,1.3-1.2v-0.5c0.9,0.1,1.7,0.3,2.6,0.5l-0.2,0.4c-0.2,0.3-0.2,0.7,0,1
				c0.1,0.3,0.4,0.5,0.7,0.7l0.1,0h0.4c0.4,0,1-0.3,1.1-0.7l0.2-0.5c0.8,0.4,1.5,0.9,2.2,1.4L34,16.2c-0.5,0.5-0.5,1.2-0.1,1.7
				c0.2,0.4,0.7,0.5,1,0.5c0.4,0,0.7-0.1,0.9-0.4l0.3-0.4c0.6,0.7,1,1.4,1.5,2.1l-0.5,0.2c-0.3,0.1-0.6,0.4-0.7,0.7
				c-0.1,0.3-0.1,0.6,0,0.9c0.2,0.5,0.6,0.8,1.2,0.8c0.1,0,0.3,0,0.5-0.1l0.4-0.2c0.2,0.8,0.4,1.7,0.5,2.5h-0.5
				c-0.7,0-1.3,0.5-1.3,1.2c0,0.7,0.6,1.2,1.3,1.2H39c-0.1,0.8-0.2,1.7-0.5,2.5L38,29.4c-0.7-0.3-1.4,0-1.6,0.7
				c-0.1,0.3-0.1,0.7,0,1c0.1,0.3,0.4,0.5,0.7,0.7l0.5,0.2c-0.2,0.4-0.4,0.7-0.6,1c-0.2,0.3-0.3,0.7-0.2,1c0.1,0.3,0.3,0.6,0.5,0.7
				c0.6,0.4,1.3,0.2,1.7-0.3c1.7-2.5,2.6-5.5,2.6-8.5C41.7,21.7,40,17.8,37.1,14.9z"/>
		</g>
	</g>
</g>
</svg>
